<svg id="Слой_1" data-name="Слой 1" xmlns="http://www.w3.org/2000/svg" xmlns:xlink="http://www.w3.org/1999/xlink" width="262.1" height="223.42" viewBox="0 0 262.1 223.42"><defs><clipPath id="clip-path" transform="translate(6.1 -20.23)"><path d="M190.07,20.63c-19.37.37-33.7,10.11-39.56,14.1a84.88,84.88,0,0,0-21.69,21.42,85.05,85.05,0,0,0-21.69-21.42c-5.87-4-20.22-13.74-39.62-14.1C45.36,20.23,23.85,32.23,12.27,49-6.1,75.63,3.59,109.07,9.9,126.91,37.26,204.13,123,241.12,128.66,243.51v.13l.16-.06.16.06v-.13c5.7-2.39,91.4-39.38,118.75-116.6,3.58-10.1,8.23-25.18,8.27-41.21v-.4c0-12.17-2.75-24.86-10.63-36.29C234,32.5,213,20.62,191.2,20.62h-1.13" style="fill:none"/></clipPath><linearGradient id="Безымянный_градиент" y1="256" x2="1" y2="256" gradientTransform="matrix(254.36, 0, 0, -254.36, 7.74, 65229.02)" gradientUnits="userSpaceOnUse"><stop offset="0" stop-color="#400084"/><stop offset="1" stop-color="#8945c4"/></linearGradient></defs><title>icon_favourites</title><g style="clip-path:url(#clip-path)"><rect width="262.1" height="223.42" style="fill:url(#Безымянный_градиент)"/></g></svg>