<svg id="Слой_1" data-name="Слой 1" xmlns="http://www.w3.org/2000/svg" xmlns:xlink="http://www.w3.org/1999/xlink" width="242.1" height="256" viewBox="0 0 242.1 256"><defs><clipPath id="clip-path" transform="translate(-7.05)"><path d="M83.88,100.48a44.57,44.57,0,1,0,44.56-44.56,44.57,44.57,0,0,0-44.56,44.56" style="fill:none"/></clipPath><linearGradient id="Безымянный_градиент" y1="256" x2="1" y2="256" gradientTransform="matrix(89.13, 0, 0, -89.13, 76.83, 22917.73)" gradientUnits="userSpaceOnUse"><stop offset="0" stop-color="#400084"/><stop offset="1" stop-color="#8945c4"/></linearGradient><clipPath id="clip-path-2" transform="translate(-7.05)"><path d="M7.05,256h242.1c-12.5-55.57-62-97.05-121-97.05S19.56,200.43,7.05,256" style="fill:none"/></clipPath><linearGradient id="Безымянный_градиент_2" x1="0" y1="256" x2="1" y2="256" gradientTransform="matrix(242.11, 0, 0, -242.11, 0, 62186.39)" xlink:href="#Безымянный_градиент"/><clipPath id="clip-path-3" transform="translate(-7.05)"><path d="M189.22,0a43.55,43.55,0,0,1-12.68,26.22A43.47,43.47,0,0,1,150,38.32a42.95,42.95,0,0,1,38.32,39.27,43.26,43.26,0,0,1,39.26-38.33,43.73,43.73,0,0,1-26.15-12.74A43.8,43.8,0,0,1,189.22,0Z" style="fill:none"/></clipPath><linearGradient id="Безымянный_градиент_3" x1="0" y1="256" x2="1" y2="256" gradientTransform="matrix(77.58, 0, 0, -77.58, 142.91, 19900.46)" xlink:href="#Безымянный_градиент"/></defs><title>icon_account</title><g style="clip-path:url(#clip-path)"><rect x="76.82" y="55.92" width="89.13" height="89.13" style="fill:url(#Безымянный_градиент)"/></g><g style="clip-path:url(#clip-path-2)"><rect y="158.95" width="242.1" height="97.05" style="fill:url(#Безымянный_градиент_2)"/></g><g style="clip-path:url(#clip-path-3)"><rect x="142.91" width="77.59" height="77.59" style="fill:url(#Безымянный_градиент_3)"/></g></svg>