<svg id="Слой_1" data-name="Слой 1" xmlns="http://www.w3.org/2000/svg" xmlns:xlink="http://www.w3.org/1999/xlink" width="252" height="238.87" viewBox="0 0 252 238.87"><defs><clipPath id="clip-path" transform="translate(-2 -8.56)"><path d="M173.14,162.52c-4.83,8.34-10.07,16.61-15.25,24.36-6.82,10.23-13.48,19.44-18.83,26.6-5.9,7.92-10.15,13.26-11.17,14.55v.27l-.1-.14-.14.14V228c-1-1.29-5.26-6.63-11.14-14.55-5.35-7.14-12-16.37-18.86-26.6-5.18-7.75-10.41-16-15.22-24.36H69.94a22.38,22.38,0,0,0-10.69,2.71v0L48.51,178.51h0l-21.84,27L2,235.92a22.6,22.6,0,0,0,10.23,11.52H248a22.39,22.39,0,0,0,6-10.93L231.74,209l-25.59-31.62-9.43-11.59a22,22,0,0,0-11.68-3.3Z" style="fill:none"/></clipPath><linearGradient id="Безымянный_градиент" x1="-0.01" y1="256" x2="0.99" y2="256" gradientTransform="matrix(252, 0, 0, -252, 2, 64708.82)" gradientUnits="userSpaceOnUse"><stop offset="0" stop-color="#400084"/><stop offset="1" stop-color="#8945c4"/></linearGradient><clipPath id="clip-path-2" transform="translate(-2 -8.56)"><path d="M93.8,90.24a39,39,0,0,1,17.78-49.17,39,39,0,0,1,36.87.14h0a39,39,0,1,1-54.68,49M129.65,9A83.69,83.69,0,0,0,105.4,13.4c-11.06,3.84-23.33,11-31.61,24.51s-9,27.24-9.26,34.81a62.39,62.39,0,0,0,1.56,14.65c4.72,22.14,19.23,51.16,33.22,75.55.13.19.24.41.34.59,6.83,11.89,13.51,22.66,18.86,31,5.88,9.2,10.15,15.43,11.14,16.91v.32l.14-.16a.9.9,0,0,0,.1.16v-.32c1-1.48,5.27-7.71,11.17-16.91,5.35-8.35,12-19.09,18.83-31,.11-.18.21-.4.32-.59,14-24.37,28.49-53.38,33.25-75.49A61.91,61.91,0,0,0,195,72.72c-.27-7.57-1.1-21.45-9.29-34.81C169.23,10.93,136.66,9.16,129.89,9Z" style="fill:none"/></clipPath><linearGradient id="Безымянный_градиент_2" x1="-0.02" y1="256" x2="0.98" y2="256" gradientTransform="matrix(130.55, 0, 0, -130.55, 62.51, 33522.71)" xlink:href="#Безымянный_градиент"/></defs><title>icon_map</title><g style="clip-path:url(#clip-path)"><rect y="153.95" width="252" height="84.92" style="fill:url(#Безымянный_градиент)"/></g><g style="clip-path:url(#clip-path-2)"><rect x="60.39" width="130.78" height="202.74" style="fill:url(#Безымянный_градиент_2)"/></g></svg>